<svg width="35" height="35" viewBox="0 0 35 35" fill="none" xmlns="http://www.w3.org/2000/svg">
<rect width="35" height="35" rx="5" fill="#04589C"/>
<path d="M10.9663 11.495L11 11.5288V21.2375L9.09125 19.3288C8.4125 18.65 8.22125 17.6075 8.615 16.7338L10.9663 11.495ZM21.2375 11H11.5288L11.495 10.9663L16.7338 8.615C17.6075 8.22125 18.65 8.4125 19.3288 9.09125L21.2375 11ZM22.0963 22.625H12.3913L12.1888 22.4225C11.9075 22.1375 11.75 21.7625 11.75 21.3613V12.2788L22.0963 22.625ZM13.1413 23.375H22.625V25.625C22.625 25.8313 22.4563 26 22.25 26H15.9125C15.8113 26 15.7175 25.9588 15.6463 25.8913L13.8838 24.1288L13.8913 24.1213L13.1413 23.375ZM26 15.9125V22.25C26 22.4563 25.8313 22.625 25.625 22.625H23.1575L12.2788 11.75H21.3613C21.7625 11.75 22.1375 11.9075 22.4225 12.1888L24.1213 13.8913L24.1288 13.8838L25.8913 15.6463C25.9588 15.7175 26 15.8113 26 15.9125Z" fill="white"/>
</svg>
