<svg width="35" height="35" viewBox="0 0 35 35" fill="none" xmlns="http://www.w3.org/2000/svg">
<g clip-path="url(#clip0_52_3)">
<rect width="35" height="35" rx="5" fill="black"/>
<path d="M35 0V35H0V0H35ZM15.944 23.1729H9.975V31.2229H16.0971V29.8667H11.601V27.6748H15.6406V26.3185H11.601V24.5335H15.944V23.1715V23.1729ZM19.0735 23.1729H17.4927V31.2229H19.0021V25.9729L22.2483 31.2229H23.8788V23.1729H22.3679V28.5483L19.0735 23.1715V23.1729ZM26.5358 23.1729H24.7742L27.6515 31.2229H29.3869L32.2685 23.1729H30.5448L28.5731 29.1302L26.5358 23.1715V23.1729ZM7.875 28.7H5.425V31.15H7.875V28.7Z" fill="#ECD53F"/>
</g>
<defs>
<clipPath id="clip0_52_3">
<rect width="35" height="35" rx="5" fill="white"/>
</clipPath>
</defs>
</svg>
