<svg width="35" height="35" viewBox="0 0 35 35" fill="none" xmlns="http://www.w3.org/2000/svg">
<rect width="35" height="35" rx="5" fill="black"/>
<path d="M17.0133 29.9683C17.4923 29.9643 17.9663 29.9393 18.4393 29.8743C19.5229 29.7336 20.5817 29.4432 21.5853 29.0113C22.9961 28.406 24.2822 27.544 25.3783 26.4693C26.3875 25.4799 27.2136 24.3196 27.8183 23.0423C28.3353 21.9431 28.6794 20.7706 28.8383 19.5663C28.9873 18.4063 28.9733 17.2203 28.7933 16.0673C28.643 15.1093 28.3767 14.173 28.0003 13.2793C27.7602 12.7179 27.4746 12.1771 27.1463 11.6623C25.9783 9.8253 24.2853 8.3483 22.3363 7.3623C21.6403 7.00678 20.9133 6.71557 20.1643 6.4923H20.1593C20.2783 6.5553 20.3993 6.6243 20.5043 6.6933C20.6243 6.7673 20.7433 6.8393 20.8553 6.9183C21.4243 7.30034 21.9474 7.74661 22.4143 8.2483C23.4773 9.3933 24.2113 10.7963 24.6323 12.2893C24.9163 13.2713 25.0663 14.2873 25.1273 15.3063C25.1713 16.0493 25.1713 16.7973 25.0803 17.5353C24.9313 18.8053 24.5263 20.0453 23.8523 21.1313C23.3561 21.9405 22.7102 22.6478 21.9493 23.2153C20.7053 24.1433 19.0723 24.6973 17.5133 24.3293C17.2559 24.2688 17.0053 24.1823 16.7653 24.0713C16.4919 23.9466 16.231 23.7959 15.9863 23.6213C15.523 23.3117 15.1044 22.9399 14.7423 22.5163C14.3031 21.9927 13.9491 21.4031 13.6933 20.7693C13.3801 19.9584 13.2128 19.0985 13.1993 18.2293C13.1693 16.9563 13.4243 15.6763 14.0533 14.5593C14.4747 13.8158 15.0401 13.1638 15.7163 12.6413C15.9413 12.4633 16.1803 12.3083 16.4203 12.1623L16.4363 12.1553C15.9641 12.0473 15.4789 12.0069 14.9953 12.0353C14.5775 12.0632 14.1649 12.1438 13.7673 12.2753C13.4083 12.3953 13.0633 12.5453 12.7483 12.7253C12.4925 12.8722 12.2475 13.0373 12.0153 13.2193C11.8043 13.3993 11.5953 13.5793 11.4003 13.7743C10.2773 14.9273 9.63235 16.4563 9.37835 18.0303C9.22835 19.0033 9.22835 19.9903 9.28735 20.9803C9.39235 22.3753 9.67835 23.7673 10.2323 25.0423C10.5698 25.8303 11.0242 26.5629 11.5803 27.2153C12.4313 28.1981 13.5053 28.9627 14.7123 29.4453C15.3885 29.7217 16.0995 29.9034 16.8253 29.9853C16.8993 30.0003 16.9743 30.0003 17.0343 30.0003L17.0133 29.9683ZM14.0793 29.5703C13.9248 29.5036 13.7745 29.4275 13.6293 29.3423C12.8767 28.9364 12.1897 28.4192 11.5913 27.8083C10.4973 26.6713 9.76435 25.2423 9.34435 23.7283C9.06772 22.6914 8.90179 21.6282 8.84935 20.5563C8.80502 19.8623 8.82041 19.1657 8.89535 18.4743C9.03035 17.2173 9.39035 15.9733 10.0193 14.8943C10.4714 14.0983 11.0775 13.4004 11.8023 12.8413C12.2984 12.4611 12.8489 12.1577 13.4353 11.9413C14.5708 11.5302 15.8118 11.5144 16.9573 11.8963C16.9863 11.8963 16.9863 11.8963 17.0023 11.9263C17.0173 11.9413 17.0473 11.9413 17.0623 11.9563C17.1073 11.9723 17.1663 12.0013 17.2273 12.0303C17.4663 12.1503 17.7063 12.3013 17.9313 12.4503C18.8382 13.0854 19.5616 13.9484 20.0283 14.9523C20.4483 15.8663 20.6433 16.8863 20.6593 17.8903C20.6733 18.9693 20.4793 20.0473 20.0143 21.0363C19.4473 22.2292 18.5261 23.2181 17.3763 23.8683C17.4663 23.8983 17.5563 23.9133 17.6473 23.9433C17.8723 23.9873 18.0963 24.0173 18.3353 24.0173C19.8033 24.0623 21.2273 23.3573 22.2753 22.3703C22.4703 22.1903 22.6503 21.9953 22.8153 21.7853C23.0403 21.5153 23.2503 21.2453 23.4293 20.9623C23.6683 20.5873 23.8643 20.2123 24.0433 19.8083C24.2722 19.2735 24.4428 18.7156 24.5523 18.1443C24.7483 17.1403 24.7633 16.1223 24.7013 15.1183C24.5663 13.0963 24.0283 11.0733 22.8593 9.3943C22.6865 9.1455 22.5013 8.90553 22.3043 8.6753C21.9764 8.30446 21.6211 7.95882 21.2413 7.6413C20.8177 7.29292 20.3612 6.98649 19.8783 6.7263C19.3336 6.47629 18.7672 6.27614 18.1863 6.1283L17.8863 6.0683C17.6773 6.0383 17.4663 6.0243 17.2523 6.0083C16.914 5.9933 16.5751 5.99864 16.2373 6.0243C15.5333 6.0693 14.8253 6.1843 14.1253 6.3613C10.7693 7.2273 7.83335 9.5663 6.27035 12.6703C5.77158 13.6591 5.41409 14.7131 5.20835 15.8013C4.97141 17.0459 4.9363 18.3205 5.10435 19.5763C5.22435 20.5963 5.47835 21.5993 5.88235 22.5533C6.10935 23.1233 6.39335 23.6773 6.70735 24.2013C7.80135 25.9843 9.39035 27.4373 11.2173 28.4413C11.9053 28.8313 12.6253 29.1313 13.3743 29.3853C13.6003 29.4593 13.8243 29.5353 14.0633 29.5953L14.0793 29.5703Z" fill="white"/>
</svg>
