<svg width="35" height="35" viewBox="0 0 35 35" fill="none" xmlns="http://www.w3.org/2000/svg">
<rect width="35" height="35" rx="5" fill="#EC5990"/>
<path d="M15.5048 23.3478H10.5359C10.4989 23.3478 10.4623 23.355 10.4282 23.3692C10.394 23.3833 10.363 23.4041 10.3368 23.4302C10.3107 23.4563 10.29 23.4874 10.2758 23.5215C10.2617 23.5557 10.2544 23.5923 10.2544 23.6293C10.2544 23.6662 10.2617 23.7028 10.2758 23.737C10.29 23.7711 10.3107 23.8022 10.3368 23.8283C10.363 23.8544 10.394 23.8752 10.4282 23.8893C10.4623 23.9035 10.4989 23.9108 10.5359 23.9108H15.5048C15.5418 23.9108 15.5784 23.9035 15.6125 23.8893C15.6467 23.8752 15.6777 23.8544 15.7038 23.8283C15.73 23.8022 15.7507 23.7711 15.7649 23.737C15.779 23.7028 15.7863 23.6662 15.7863 23.6293C15.7863 23.5923 15.779 23.5557 15.7649 23.5215C15.7507 23.4874 15.73 23.4563 15.7038 23.4302C15.6777 23.4041 15.6467 23.3833 15.6125 23.3692C15.5784 23.355 15.5418 23.3478 15.5048 23.3478ZM22.8243 23.3478H17.8555C17.8185 23.3478 17.7819 23.355 17.7478 23.3692C17.7136 23.3833 17.6826 23.4041 17.6564 23.4302C17.6303 23.4563 17.6096 23.4874 17.5954 23.5215C17.5813 23.5557 17.574 23.5923 17.574 23.6293C17.574 23.6662 17.5813 23.7028 17.5954 23.737C17.6096 23.7711 17.6303 23.8022 17.6564 23.8283C17.6826 23.8544 17.7136 23.8752 17.7478 23.8893C17.7819 23.9035 17.8185 23.9108 17.8555 23.9108H22.8243C22.899 23.9108 22.9706 23.8811 23.0234 23.8283C23.0761 23.7755 23.1058 23.7039 23.1058 23.6293C23.1058 23.5546 23.0761 23.483 23.0234 23.4302C22.9706 23.3774 22.899 23.3478 22.8243 23.3478ZM15.4907 16.8728H10.5359C10.4612 16.8728 10.3896 16.9024 10.3368 16.9552C10.2841 17.008 10.2544 17.0796 10.2544 17.1543C10.2544 17.2289 10.2841 17.3005 10.3368 17.3533C10.3896 17.4061 10.4612 17.4358 10.5359 17.4358H15.4907C15.5654 17.4358 15.637 17.4061 15.6898 17.3533C15.7425 17.3005 15.7722 17.2289 15.7722 17.1543C15.7722 17.0796 15.7425 17.008 15.6898 16.9552C15.637 16.9024 15.5654 16.8728 15.4907 16.8728ZM22.8102 16.8728H17.8555C17.7808 16.8728 17.7092 16.9024 17.6564 16.9552C17.6037 17.008 17.574 17.0796 17.574 17.1543C17.574 17.2289 17.6037 17.3005 17.6564 17.3533C17.7092 17.4061 17.7808 17.4358 17.8555 17.4358H22.8102C22.8849 17.4358 22.9565 17.4061 23.0093 17.3533C23.062 17.3005 23.0917 17.2289 23.0917 17.1543C23.0917 17.0796 23.062 17.008 23.0093 16.9552C22.9565 16.9024 22.8849 16.8728 22.8102 16.8728ZM23.362 7.67265H19.021C18.8659 7.18706 18.5604 6.76334 18.1488 6.46268C17.7371 6.16203 17.2406 6 16.7308 6C16.221 6 15.7245 6.16203 15.3128 6.46268C14.9012 6.76334 14.5957 7.18706 14.4406 7.67265H10.0968C8.3865 7.67265 7 9.05905 7 10.7694V26.9034C7 28.6136 8.3865 30.0001 10.0968 30.0001H23.362C25.0723 30.0001 26.4588 28.6136 26.4588 26.9034V10.7694C26.4588 9.05905 25.0723 7.67265 23.362 7.67265ZM14.6574 8.23565C14.7229 8.23711 14.7868 8.2157 14.8382 8.1751C14.8895 8.13451 14.9252 8.07728 14.9389 8.01325C15.0283 7.60263 15.2555 7.23494 15.5828 6.97128C15.91 6.70762 16.3176 6.56385 16.7378 6.56385C17.1581 6.56385 17.5657 6.70762 17.8929 6.97128C18.2202 7.23494 18.4474 7.60263 18.5368 8.01325C18.5505 8.07728 18.5862 8.13451 18.6375 8.1751C18.6889 8.2157 18.7528 8.23711 18.8183 8.23565H20.3329V10.0797C20.3329 10.3037 20.2439 10.5185 20.0855 10.6769C19.9271 10.8353 19.7123 10.9243 19.4883 10.9243H13.9846C13.7606 10.9243 13.5458 10.8353 13.3874 10.6769C13.229 10.5185 13.14 10.3037 13.14 10.0797V8.23565H14.6574ZM25.8957 26.9034C25.8957 28.3027 24.7613 29.4371 23.362 29.4371H10.0968C8.6975 29.4371 7.5631 28.3027 7.5631 26.9034V10.7694C7.5631 9.37005 8.6975 8.23565 10.0968 8.23565H12.577V10.0797C12.577 10.8571 13.2072 11.4873 13.9846 11.4873H19.4742C20.2516 11.4873 20.8818 10.8571 20.8818 10.0797V8.23565H23.362C24.7613 8.23565 25.8957 9.37005 25.8957 10.7694V26.9034Z" fill="white"/>
</svg>
