<svg width="35" height="35" viewBox="0 0 35 35" fill="none" xmlns="http://www.w3.org/2000/svg">
<rect width="35" height="35" rx="5" fill="#61DBFB"/>
<path d="M25.4199 13.0892C25.1563 13.0013 24.8926 12.9183 24.6289 12.8402C24.6729 12.6595 24.7119 12.4789 24.751 12.2982C25.3516 9.38806 24.9561 7.04919 23.623 6.27771C22.3389 5.54041 20.2441 6.30701 18.125 8.15271C17.915 8.33337 17.71 8.5238 17.5146 8.71423C17.3828 8.58728 17.2461 8.46033 17.1094 8.33826C14.8877 6.3656 12.6611 5.53552 11.3281 6.31189C10.0488 7.05408 9.66797 9.25623 10.2051 12.0101C10.2588 12.2836 10.3174 12.5521 10.3857 12.8256C10.0732 12.9135 9.76562 13.0111 9.47754 13.1136C6.87012 14.017 5 15.4427 5 16.9174C5 18.4408 6.99219 19.9691 9.70215 20.8968C9.92188 20.9701 10.1416 21.0433 10.3662 21.1068C10.293 21.3998 10.2295 21.6879 10.1709 21.9857C9.6582 24.6957 10.0586 26.8441 11.3379 27.5814C12.6563 28.3431 14.873 27.5619 17.0312 25.6722C17.2021 25.5209 17.373 25.3646 17.5439 25.1986C17.7588 25.4086 17.9834 25.6088 18.208 25.8041C20.2979 27.601 22.3633 28.3285 23.6377 27.5912C24.9561 26.8295 25.3857 24.5199 24.8291 21.7074C24.7852 21.4926 24.7363 21.2728 24.6826 21.0482C24.8389 21.0043 24.9902 20.9554 25.1416 20.9066C27.959 19.974 30 18.4652 30 16.9174C30 15.4379 28.0762 14.0023 25.4199 13.0892ZM18.8135 8.94373C20.6299 7.36169 22.3242 6.74158 23.0957 7.18591C23.9209 7.65955 24.2383 9.57361 23.7207 12.0883C23.6865 12.2543 23.6523 12.4154 23.6084 12.5765C22.5244 12.3324 21.4258 12.1566 20.3223 12.059C19.6875 11.1508 18.9941 10.2816 18.2422 9.46619C18.4326 9.28552 18.6182 9.11462 18.8135 8.94373ZM13.1641 19.4515C13.4131 19.8763 13.667 20.3011 13.9355 20.7162C13.1738 20.6332 12.417 20.5111 11.6699 20.35C11.8848 19.6468 12.1533 18.9193 12.4658 18.1771C12.6904 18.6068 12.9199 19.0316 13.1641 19.4515ZM11.6846 13.5775C12.3877 13.4213 13.1348 13.2943 13.9111 13.1967C13.6523 13.6019 13.3984 14.017 13.1592 14.4369C12.9199 14.8519 12.6855 15.2767 12.4658 15.7064C12.1582 14.9789 11.8994 14.266 11.6846 13.5775ZM13.0225 16.9418C13.3447 16.2679 13.6963 15.6088 14.0674 14.9593C14.4385 14.3099 14.8389 13.6801 15.2588 13.0599C15.9912 13.0062 16.7383 12.9769 17.5 12.9769C18.2617 12.9769 19.0137 13.0062 19.7412 13.0599C20.1562 13.6752 20.5518 14.3051 20.9277 14.9496C21.3037 15.5941 21.6553 16.2533 21.9873 16.9222C21.6602 17.5961 21.3086 18.2601 20.9326 18.9144C20.5615 19.5638 20.166 20.1937 19.751 20.8187C19.0234 20.8724 18.2666 20.8968 17.5 20.8968C16.7334 20.8968 15.9912 20.8724 15.2734 20.8285C14.8486 20.2084 14.4482 19.5736 14.0723 18.9242C13.6963 18.2748 13.3496 17.6156 13.0225 16.9418ZM21.8408 19.4418C22.0898 19.0121 22.3242 18.5775 22.5537 18.1381C22.8662 18.8461 23.1396 19.5638 23.3789 20.3011C22.6221 20.472 21.8555 20.6039 21.084 20.6918C21.3477 20.2816 21.5967 19.8617 21.8408 19.4418ZM22.5439 15.7064C22.3145 15.2767 22.0801 14.847 21.8359 14.4271C21.5967 14.0121 21.3477 13.6019 21.0889 13.1967C21.875 13.2943 22.627 13.4261 23.3301 13.5873C23.1055 14.3099 22.8418 15.0131 22.5439 15.7064ZM17.5098 10.2133C18.0225 10.7699 18.5059 11.3558 18.9551 11.9613C17.9883 11.9174 17.0166 11.9174 16.0498 11.9613C16.5283 11.3314 17.0215 10.7455 17.5098 10.2133ZM11.8457 7.22009C12.666 6.74158 14.4873 7.42517 16.4063 9.12439C16.5283 9.23181 16.6504 9.349 16.7773 9.46619C16.0205 10.2816 15.3223 11.1508 14.6826 12.059C13.5791 12.1566 12.4854 12.3275 11.4014 12.5668C11.3379 12.3177 11.2842 12.0638 11.2305 11.8099C10.7715 9.44665 11.0742 7.66443 11.8457 7.22009ZM10.6494 20.0912C10.4443 20.0326 10.2441 19.9691 10.0439 19.9008C9.00391 19.5736 7.82227 19.056 6.96777 18.3773C6.47461 18.0355 6.14258 17.5082 6.0498 16.9174C6.0498 16.0238 7.59277 14.8812 9.81934 14.1049C10.0977 14.0072 10.3809 13.9193 10.6641 13.8363C10.9961 14.8959 11.3965 15.9359 11.8604 16.9418C11.3916 17.9623 10.9863 19.017 10.6494 20.0912ZM16.3428 24.8763C15.5371 25.6136 14.6045 26.1996 13.5889 26.6C13.0469 26.8588 12.4219 26.8832 11.8652 26.6635C11.0889 26.2142 10.7666 24.4906 11.2061 22.1713C11.2598 21.8978 11.3184 21.6244 11.3867 21.3558C12.4805 21.5902 13.584 21.7513 14.7021 21.8343C15.3467 22.7474 16.0547 23.6215 16.8115 24.4418C16.6553 24.5931 16.499 24.7396 16.3428 24.8763ZM17.5391 23.6898C17.041 23.1527 16.543 22.557 16.0596 21.9174C16.5283 21.9369 17.0117 21.9467 17.5 21.9467C18.0029 21.9467 18.4961 21.9369 18.9844 21.9125C18.5352 22.5326 18.0518 23.1234 17.5391 23.6898ZM23.9209 25.1547C23.877 25.7504 23.584 26.307 23.1152 26.683C22.3389 27.1322 20.6836 26.5463 18.8965 25.0131C18.6914 24.8373 18.4863 24.6468 18.2764 24.4515C19.0234 23.6263 19.7119 22.7523 20.3369 21.8343C21.4551 21.7416 22.5684 21.5707 23.667 21.3217C23.7158 21.5218 23.7598 21.722 23.7988 21.9174C24.0381 22.972 24.0771 24.0707 23.9209 25.1547ZM24.8096 19.9056C24.6729 19.9496 24.5361 19.9935 24.3945 20.0326C24.0527 18.9681 23.6328 17.9281 23.1494 16.9174C23.6182 15.9213 24.0137 14.8959 24.3457 13.8461C24.5996 13.9193 24.8438 13.9974 25.0781 14.0756C27.3535 14.8568 28.9502 16.0189 28.9502 16.9076C28.9502 17.8646 27.2461 19.1 24.8096 19.9056ZM17.5 19.1732C18.7354 19.1732 19.7363 18.1722 19.7363 16.9369C19.7363 15.7015 18.7354 14.7006 17.5 14.7006C16.2646 14.7006 15.2637 15.7015 15.2637 16.9369C15.2637 18.1722 16.2646 19.1732 17.5 19.1732Z" fill="white"/>
</svg>
