<svg width="35" height="35" viewBox="0 0 35 35" fill="none" xmlns="http://www.w3.org/2000/svg">
<rect width="35" height="35" rx="5" fill="#06B6D4"/>
<path d="M17 11C13.8 11 11.8 12.6 11 15.8C12.2 14.2 13.6 13.6 15.2 14C16.113 14.228 16.765 14.89 17.488 15.624C18.665 16.818 20.026 18.2 23 18.2C26.2 18.2 28.2 16.6 29 13.4C27.8 15 26.4 15.6 24.8 15.2C23.887 14.972 23.235 14.31 22.512 13.576C21.336 12.382 19.975 11 17 11ZM11 18.2C7.8 18.2 5.8 19.8 5 23C6.2 21.4 7.6 20.8 9.2 21.2C10.113 21.428 10.765 22.09 11.488 22.824C12.665 24.018 14.026 25.4 17 25.4C20.2 25.4 22.2 23.8 23 20.6C21.8 22.2 20.4 22.8 18.8 22.4C17.887 22.172 17.235 21.51 16.512 20.776C15.336 19.582 13.975 18.2 11 18.2Z" fill="white"/>
</svg>
