<svg width="35" height="35" viewBox="0 0 35 35" fill="none" xmlns="http://www.w3.org/2000/svg">
<g clip-path="url(#clip0_7_5)">
<rect width="35" height="35" rx="5" fill="white"/>
<path d="M34.1667 0H0.833333C0.3725 0 0 0.373333 0 0.833333V34.1667C0 34.6267 0.3725 35 0.833333 35H34.1667C34.6275 35 35 34.6267 35 34.1667V0.833333C35 0.373333 34.6275 0 34.1667 0ZM20.8333 18.7042H16.6667V31.6667H13.3333V18.7042H9.16667V15.8333H20.8333V18.7042ZM21.7675 30.9267V27.4617C21.7675 27.4617 23.66 28.8883 25.9308 28.8883C28.2017 28.8883 28.1142 27.4033 28.1142 27.2C28.1142 25.045 21.68 25.045 21.68 20.2708C21.68 13.7783 31.055 16.34 31.055 16.34L30.9383 19.4267C30.9383 19.4267 29.3658 18.3783 27.59 18.3783C25.8142 18.3783 25.1733 19.2225 25.1733 20.125C25.1733 22.4542 31.6658 22.2217 31.6658 26.9092C31.6667 34.1292 21.7675 30.9267 21.7675 30.9267Z" fill="#007ACC"/>
</g>
<defs>
<clipPath id="clip0_7_5">
<rect width="35" height="35" rx="5" fill="white"/>
</clipPath>
</defs>
</svg>
