<svg width="35" height="35" viewBox="0 0 35 35" fill="none" xmlns="http://www.w3.org/2000/svg">
<rect width="35" height="35" rx="5" fill="#FFC400"/>
<path d="M13.6779 9.95178L8 19.7609L10.8343 6.37429C10.9257 5.94326 11.5058 5.8612 11.7124 6.25073L13.6779 9.95178ZM14.7249 11.9136L15.8567 14.0357L10.6409 18.9686L14.7249 11.9136ZM18.9598 11.093L17.2715 12.6964L15.8378 9.99893L16.7555 8.42005C16.9423 8.09843 17.4101 8.10974 17.5818 8.43986L18.9598 11.093ZM25.5337 22.9677L17.2337 27.7968C17.0923 27.8911 16.9225 27.9288 16.7621 27.9288C16.6018 27.9288 16.432 27.8911 16.2906 27.8062L8.69795 23.4204L23.1918 9.68486C23.4663 9.42454 23.919 9.57733 23.9813 9.94989L25.9865 21.9962C26.0525 22.3829 25.8733 22.7696 25.5337 22.9677Z" fill="white"/>
</svg>
