<svg width="35" height="35" viewBox="0 0 35 35" fill="none" xmlns="http://www.w3.org/2000/svg">
<rect width="35" height="35" rx="5" fill="#13AA52"/>
<g clip-path="url(#clip0_7_5)">
<path d="M17 27C22.5228 27 27 22.5228 27 17C27 11.4772 22.5228 7 17 7C11.4772 7 7 11.4772 7 17C7 22.5228 11.4772 27 17 27Z" fill="white"/>
<path d="M19.6731 15.7781C19.0414 12.9904 17.5486 12.0738 17.3879 11.7236C17.2121 11.4766 17.034 11.0371 17.034 11.0371C17.0311 11.0297 17.0264 11.0166 17.0209 11.0039C17.0027 11.251 16.9934 11.3463 16.7598 11.5955C16.3981 11.8783 14.5422 13.4355 14.3912 16.6027C14.2504 19.5566 16.525 21.3168 16.8326 21.5412L16.8676 21.566V21.5639C16.8695 21.5787 16.9652 22.267 17.0324 22.9963H17.2734C17.33 22.4808 17.4148 21.9687 17.5274 21.4625L17.5469 21.4498C17.6845 21.3511 17.8157 21.2438 17.9397 21.1285L17.9537 21.1158C18.6076 20.5117 19.7832 19.1145 19.7717 16.8867C19.7693 16.5151 19.7363 16.1443 19.6731 15.7781ZM17.0068 19.8734C17.0068 19.8734 17.0068 15.7305 17.1436 15.7313C17.2502 15.7313 17.3883 21.0752 17.3883 21.0752C17.1984 21.0523 17.0068 20.1957 17.0068 19.8734Z" fill="#13AA52" fill-opacity="0.99"/>
</g>
<defs>
<clipPath id="clip0_7_5">
<rect width="20" height="20" fill="white" transform="translate(7 7)"/>
</clipPath>
</defs>
</svg>
