<svg width="35" height="35" viewBox="0 0 35 35" fill="none" xmlns="http://www.w3.org/2000/svg">
<rect width="35" height="35" rx="5" fill="black"/>
<path d="M15.0191 20.8906C15.0191 21.2788 14.7045 21.5938 14.3159 21.5938C13.9273 21.5938 13.6128 21.2788 13.6128 20.8906V14.3281C13.6128 14.022 13.8111 13.7511 14.1027 13.6578C14.3956 13.565 14.713 13.6719 14.8897 13.9217L22.7539 25.033C25.1642 23.3323 26.75 20.532 26.75 17.375C26.75 12.2188 22.5312 8 17.375 8C12.2188 8 8 12.2188 8 17.375C8 22.5312 12.2188 26.75 17.375 26.75C18.8712 26.75 20.2841 26.3858 21.5422 25.7553L15.0191 16.5387V20.8906ZM19.7066 13.8594C19.7066 13.4712 20.0211 13.1562 20.4097 13.1562C20.7983 13.1562 21.1128 13.4712 21.1128 13.8594V20.3469L19.7066 18.3655V13.8594Z" fill="white"/>
</svg>
