<svg width="35" height="35" viewBox="0 0 35 35" fill="none" xmlns="http://www.w3.org/2000/svg">
<rect width="35" height="35" rx="5" fill="#4584B6"/>
<path d="M27.4746 14.2276C27.0987 12.7188 26.3858 11.5811 24.8672 11.5811H22.9092V13.8956C22.9092 15.6924 21.3858 17.2061 19.6475 17.2061H14.4327C13.0069 17.2061 11.8252 18.4268 11.8252 19.8575V24.8282C11.8252 26.2442 13.0557 27.0743 14.4327 27.4796C16.083 27.963 17.67 28.0508 19.6475 27.4796C20.961 27.0987 22.2549 26.3321 22.2549 24.8282V22.8409H17.045V22.1768H24.8672C26.3858 22.1768 26.9473 21.1173 27.4746 19.5303C28.0215 17.8946 27.9971 16.3223 27.4746 14.2276ZM19.9746 24.1641C20.5166 24.1641 20.9561 24.6085 20.9561 25.1553C20.9561 25.7071 20.5166 26.1514 19.9746 26.1514C19.4375 26.1514 18.9932 25.7022 18.9932 25.1553C18.9981 24.6036 19.4375 24.1641 19.9746 24.1641ZM14.1934 16.5518H19.4082C20.8584 16.5518 22.0157 15.3555 22.0157 13.9005V8.92487C22.0157 7.50885 20.8243 6.44928 19.4082 6.21002C17.6602 5.92194 15.7608 5.93659 14.1934 6.21491C11.9864 6.60553 11.586 7.42096 11.586 8.92975V10.9171H16.8057V11.5811H9.62797C8.10941 11.5811 6.78129 12.4942 6.36625 14.2276C5.88773 16.2149 5.8682 17.4551 6.36625 19.5303C6.73734 21.0733 7.62113 22.1768 9.13969 22.1768H10.9317V19.794C10.9317 18.0704 12.4209 16.5518 14.1934 16.5518ZM13.8662 9.58893C13.3243 9.58893 12.8848 9.14459 12.8848 8.59772C12.8897 8.04596 13.3243 7.60163 13.8662 7.60163C14.4034 7.60163 14.8477 8.05084 14.8477 8.59772C14.8477 9.14459 14.4082 9.58893 13.8662 9.58893Z" fill="white"/>
</svg>
