<svg width="1071" height="300" viewBox="0 0 1071 300" fill="none" xmlns="http://www.w3.org/2000/svg">
<g clip-path="url(#clip0_15_34)">
<rect width="1071" height="300" fill="white"/>
<path d="M10.7324 49L0.957031 11.8809H12.5098L17.7051 35.875H17.9785L23.5156 11.8809H34.7949L40.4688 35.7383H40.7422L45.7324 11.8809H57.3535L47.5781 49H35.2734L29.3945 26.9883H28.916L23.0371 49H10.7324ZM78.4766 49.6836C66.8555 49.6836 59.7461 42.4375 59.7461 30.6113C59.7461 19.0928 66.9238 11.4023 78.0664 11.4023C88.4912 11.4023 95.9766 18.0332 95.9766 30.3379V33.2773H71.0938V33.4824C71.1279 38.2334 73.999 41.3438 78.6816 41.3438C81.8262 41.3438 84.1846 39.9766 85.1074 37.7891H95.8398C94.4385 45.0352 88.0811 49.6836 78.4766 49.6836ZM71.0938 26.5098H85.2441C85.1758 22.5449 82.3047 19.7422 78.3398 19.7422C74.2725 19.7422 71.2646 22.6816 71.0938 26.5098ZM101.992 49V-0.492188H113.477V18.2383H113.75C115.151 14.8887 118.33 11.4023 124.277 11.4023C132.104 11.4023 139.111 17.4521 139.111 30.4746C139.111 43.0527 132.446 49.5469 124.209 49.5469C118.535 49.5469 115.254 46.3682 113.75 42.9844H113.408V49H101.992ZM113.271 30.4062C113.237 36.5586 115.835 40.5234 120.312 40.5234C124.79 40.5234 127.285 36.5244 127.285 30.4062C127.285 24.3564 124.79 20.4258 120.312 20.4258C115.835 20.4258 113.237 24.2539 113.271 30.4062ZM159.141 38.6777C159.106 30.4404 165.498 27.501 172.881 27.0566C175.581 26.8857 180.195 26.7148 181.768 26.6465V23.6387C181.768 21.041 179.854 19.5713 176.709 19.6055C173.667 19.5713 171.685 20.9385 171.24 23.3652H160.508C161.021 16.8027 166.558 11.4023 176.982 11.4023C186.143 11.4023 193.286 15.7432 193.32 23.7754V49H182.451V43.8047H182.178C180.161 47.5645 176.572 49.6494 171.377 49.6836C164.268 49.6494 159.106 46.0264 159.141 38.6777ZM170.078 38.1992C170.044 40.6943 172.061 42.0273 174.863 42.0273C178.794 42.0273 181.87 39.4639 181.836 35.8066V33.4141C180.435 33.4482 176.538 33.6533 174.795 33.8242C171.89 34.1318 170.044 35.7383 170.078 38.1992ZM200.361 62.9453V11.8809H211.777V18.2383H212.188C213.555 14.8887 216.733 11.4023 222.646 11.4023C230.508 11.4023 237.48 17.4521 237.48 30.4746C237.48 43.0527 230.884 49.5469 222.646 49.5469C216.938 49.5469 213.623 46.3682 212.188 42.9844H211.914V62.9453H200.361ZM211.641 30.4062C211.641 36.5586 214.238 40.5234 218.682 40.5234C223.193 40.5234 225.688 36.5244 225.654 30.4062C225.688 24.3564 223.228 20.4258 218.682 20.4258C214.204 20.4258 211.641 24.2539 211.641 30.4062ZM243.564 62.9453V11.8809H254.98V18.2383H255.391C256.758 14.8887 259.937 11.4023 265.85 11.4023C273.711 11.4023 280.684 17.4521 280.684 30.4746C280.684 43.0527 274.087 49.5469 265.85 49.5469C260.142 49.5469 256.826 46.3682 255.391 42.9844H255.117V62.9453H243.564ZM254.844 30.4062C254.844 36.5586 257.441 40.5234 261.885 40.5234C266.396 40.5234 268.892 36.5244 268.857 30.4062C268.892 24.3564 266.431 20.4258 261.885 20.4258C257.407 20.4258 254.844 24.2539 254.844 30.4062ZM313.975 27.7402V49H302.422V-0.492188H313.564V18.6484H313.975C315.684 14.1025 319.58 11.4023 325.117 11.4023C332.944 11.4023 338.037 16.8711 338.037 25.3477V49H326.484V27.5352C326.519 23.3652 324.297 20.8701 320.4 20.8359C316.572 20.8701 313.975 23.4336 313.975 27.7402ZM365.996 11.8809V20.3574H359.229V37.3789C359.263 39.7031 360.425 40.4209 362.373 40.4551C363.33 40.5234 365.176 40.4209 366.475 40.3184V49.1367C365.347 49.3076 363.433 49.5127 360.732 49.5469C352.563 49.5127 347.676 46.1631 347.744 38.6777V20.3574H342.754V11.8809H347.744V2.99414H359.229V11.8809H365.996ZM371.943 49V11.8809H382.881V18.6484H383.291C384.863 14.1367 388.726 11.4023 393.818 11.4023C398.945 11.4023 402.876 14.2051 403.867 18.6484H404.277C405.713 14.2393 410.02 11.4023 415.488 11.4023C422.461 11.4023 427.314 16.1191 427.314 23.9805V49H415.762V26.5781C415.796 22.7842 413.608 20.7676 410.498 20.7676C407.183 20.7676 405.166 23.126 405.166 26.7148V49H394.092V26.4414C394.092 22.9551 392.007 20.7676 388.896 20.7676C385.718 20.7676 383.462 23.1943 383.496 26.9883V49H371.943ZM446.113 -0.492188V49H434.561V-0.492188H446.113ZM486.377 49.6836C474.688 49.6836 467.715 41.8906 467.715 30.543C467.715 19.1611 474.756 11.4023 486.377 11.4023C496.528 11.4023 503.193 17.2812 503.467 26.3047H492.734C492.222 22.5449 489.966 20.1865 486.514 20.1523C482.275 20.1865 479.438 23.7754 479.473 30.4062C479.438 37.1396 482.241 40.7627 486.514 40.7285C489.829 40.7627 492.222 38.5752 492.734 34.6445H503.467C503.159 43.7021 496.699 49.6836 486.377 49.6836ZM530.811 23.3652C530.503 20.9043 528.247 19.332 525.205 19.332C522.334 19.332 520.112 20.5967 520.146 22.5449C520.112 23.9463 521.206 25.1426 524.385 25.7578L531.426 27.125C538.809 28.5605 542.363 31.7734 542.432 37.1738C542.363 44.7617 535.391 49.6836 525.342 49.6836C514.712 49.6836 508.56 44.9668 507.773 37.584H519.258C519.702 40.25 521.958 41.6514 525.41 41.6855C528.521 41.6514 530.674 40.4551 530.742 38.4043C530.674 36.7295 529.238 35.7383 526.025 35.0547L519.668 33.8926C512.354 32.5254 508.662 28.834 508.73 23.1602C508.662 15.8115 514.985 11.4023 525 11.4023C534.98 11.4023 541.064 15.9482 541.543 23.3652H530.811ZM569.502 23.3652C569.194 20.9043 566.938 19.332 563.896 19.332C561.025 19.332 558.804 20.5967 558.838 22.5449C558.804 23.9463 559.897 25.1426 563.076 25.7578L570.117 27.125C577.5 28.5605 581.055 31.7734 581.123 37.1738C581.055 44.7617 574.082 49.6836 564.033 49.6836C553.403 49.6836 547.251 44.9668 546.465 37.584H557.949C558.394 40.25 560.649 41.6514 564.102 41.6855C567.212 41.6514 569.365 40.4551 569.434 38.4043C569.365 36.7295 567.93 35.7383 564.717 35.0547L558.359 33.8926C551.045 32.5254 547.354 28.834 547.422 23.1602C547.354 15.8115 553.677 11.4023 563.691 11.4023C573.672 11.4023 579.756 15.9482 580.234 23.3652H569.502ZM602.451 11.8809H614.004V50.5723C613.97 59.6641 608.159 62.9111 599.033 62.9453L596.641 62.877V54.0586C597.222 54.127 597.632 54.1611 598.076 54.127C601.357 54.1611 602.451 52.9307 602.451 50.3672V11.8809ZM602.246 1.90039C602.246 -1.17578 604.912 -3.6709 608.193 -3.63672C611.509 -3.6709 614.175 -1.17578 614.209 1.90039C614.175 4.97656 611.509 7.4375 608.193 7.4375C604.912 7.4375 602.246 4.97656 602.246 1.90039ZM619.678 38.6777C619.644 30.4404 626.035 27.501 633.418 27.0566C636.118 26.8857 640.732 26.7148 642.305 26.6465V23.6387C642.305 21.041 640.391 19.5713 637.246 19.6055C634.204 19.5713 632.222 20.9385 631.777 23.3652H621.045C621.558 16.8027 627.095 11.4023 637.52 11.4023C646.68 11.4023 653.823 15.7432 653.857 23.7754V49H642.988V43.8047H642.715C640.698 47.5645 637.109 49.6494 631.914 49.6836C624.805 49.6494 619.644 46.0264 619.678 38.6777ZM630.615 38.1992C630.581 40.6943 632.598 42.0273 635.4 42.0273C639.331 42.0273 642.407 39.4639 642.373 35.8066V33.4141C640.972 33.4482 637.075 33.6533 635.332 33.8242C632.427 34.1318 630.581 35.7383 630.615 38.1992ZM695.283 11.8809L682.5 49H669.307L656.592 11.8809H668.691L675.732 37.6523H676.143L683.115 11.8809H695.283ZM696.992 38.6777C696.958 30.4404 703.35 27.501 710.732 27.0566C713.433 26.8857 718.047 26.7148 719.619 26.6465V23.6387C719.619 21.041 717.705 19.5713 714.561 19.6055C711.519 19.5713 709.536 20.9385 709.092 23.3652H698.359C698.872 16.8027 704.409 11.4023 714.834 11.4023C723.994 11.4023 731.138 15.7432 731.172 23.7754V49H720.303V43.8047H720.029C718.013 47.5645 714.424 49.6494 709.229 49.6836C702.119 49.6494 696.958 46.0264 696.992 38.6777ZM707.93 38.1992C707.896 40.6943 709.912 42.0273 712.715 42.0273C716.646 42.0273 719.722 39.4639 719.688 35.8066V33.4141C718.286 33.4482 714.39 33.6533 712.646 33.8242C709.741 34.1318 707.896 35.7383 707.93 38.1992ZM759.609 23.3652C759.302 20.9043 757.046 19.332 754.004 19.332C751.133 19.332 748.911 20.5967 748.945 22.5449C748.911 23.9463 750.005 25.1426 753.184 25.7578L760.225 27.125C767.607 28.5605 771.162 31.7734 771.23 37.1738C771.162 44.7617 764.189 49.6836 754.141 49.6836C743.511 49.6836 737.358 44.9668 736.572 37.584H748.057C748.501 40.25 750.757 41.6514 754.209 41.6855C757.319 41.6514 759.473 40.4551 759.541 38.4043C759.473 36.7295 758.037 35.7383 754.824 35.0547L748.467 33.8926C741.152 32.5254 737.461 28.834 737.529 23.1602C737.461 15.8115 743.784 11.4023 753.799 11.4023C763.779 11.4023 769.863 15.9482 770.342 23.3652H759.609ZM794.131 49.6836C782.441 49.6836 775.469 41.8906 775.469 30.543C775.469 19.1611 782.51 11.4023 794.131 11.4023C804.282 11.4023 810.947 17.2812 811.221 26.3047H800.488C799.976 22.5449 797.72 20.1865 794.268 20.1523C790.029 20.1865 787.192 23.7754 787.227 30.4062C787.192 37.1396 789.995 40.7627 794.268 40.7285C797.583 40.7627 799.976 38.5752 800.488 34.6445H811.221C810.913 43.7021 804.453 49.6836 794.131 49.6836ZM817.168 49V11.8809H828.379V18.5801H828.721C830.088 13.7266 833.369 11.3682 837.471 11.334C838.53 11.3682 839.795 11.5391 840.752 11.7441V21.793C839.658 21.4512 837.573 21.2119 836.172 21.2461C831.865 21.2119 828.687 24.2197 828.721 28.6973V49H817.168ZM845.4 49V11.8809H856.953V49H845.4ZM845.264 1.90039C845.264 -1.17578 847.93 -3.6709 851.211 -3.63672C854.526 -3.6709 857.192 -1.17578 857.227 1.90039C857.192 4.97656 854.526 7.4375 851.211 7.4375C847.93 7.4375 845.264 4.97656 845.264 1.90039ZM864.336 62.9453V11.8809H875.752V18.2383H876.162C877.529 14.8887 880.708 11.4023 886.621 11.4023C894.482 11.4023 901.455 17.4521 901.455 30.4746C901.455 43.0527 894.858 49.5469 886.621 49.5469C880.913 49.5469 877.598 46.3682 876.162 42.9844H875.889V62.9453H864.336ZM875.615 30.4062C875.615 36.5586 878.213 40.5234 882.656 40.5234C887.168 40.5234 889.663 36.5244 889.629 30.4062C889.663 24.3564 887.202 20.4258 882.656 20.4258C878.179 20.4258 875.615 24.2539 875.615 30.4062ZM928.252 11.8809V20.3574H921.484V37.3789C921.519 39.7031 922.681 40.4209 924.629 40.4551C925.586 40.5234 927.432 40.4209 928.73 40.3184V49.1367C927.603 49.3076 925.688 49.5127 922.988 49.5469C914.819 49.5127 909.932 46.1631 910 38.6777V20.3574H905.01V11.8809H910V2.99414H921.484V11.8809H928.252ZM970.566 11.8809V20.3574H963.799V37.3789C963.833 39.7031 964.995 40.4209 966.943 40.4551C967.9 40.5234 969.746 40.4209 971.045 40.3184V49.1367C969.917 49.3076 968.003 49.5127 965.303 49.5469C957.134 49.5127 952.246 46.1631 952.314 38.6777V20.3574H947.324V11.8809H952.314V2.99414H963.799V11.8809H970.566ZM983.213 62.9453C981.025 62.9111 978.975 62.877 977.471 62.7402V53.9902C978.975 54.0928 980.581 54.127 981.982 54.127C983.862 54.127 985.366 53.9219 986.357 51.4609L986.768 50.2988L973.574 11.8809H985.605L992.646 38.541H993.057L1000.1 11.8809H1012.27L998.184 52.623C996.099 58.707 991.929 62.9111 983.213 62.9453ZM1016.71 62.9453V11.8809H1028.12V18.2383H1028.54C1029.9 14.8887 1033.08 11.4023 1038.99 11.4023C1046.86 11.4023 1053.83 17.4521 1053.83 30.4746C1053.83 43.0527 1047.23 49.5469 1038.99 49.5469C1033.29 49.5469 1029.97 46.3682 1028.54 42.9844H1028.26V62.9453H1016.71ZM1027.99 30.4062C1027.99 36.5586 1030.59 40.5234 1035.03 40.5234C1039.54 40.5234 1042.04 36.5244 1042 30.4062C1042.04 24.3564 1039.58 20.4258 1035.03 20.4258C1030.55 20.4258 1027.99 24.2539 1027.99 30.4062ZM1077.21 49.6836C1065.59 49.6836 1058.48 42.4375 1058.48 30.6113C1058.48 19.0928 1065.65 11.4023 1076.8 11.4023C1087.22 11.4023 1094.71 18.0332 1094.71 30.3379V33.2773H1069.82V33.4824C1069.86 38.2334 1072.73 41.3438 1077.41 41.3438C1080.56 41.3438 1082.92 39.9766 1083.84 37.7891H1094.57C1093.17 45.0352 1086.81 49.6836 1077.21 49.6836ZM1069.82 26.5098H1083.97C1083.91 22.5449 1081.04 19.7422 1077.07 19.7422C1073 19.7422 1070 22.6816 1069.82 26.5098ZM3.69141 133V95.8809H14.9023V102.58H15.2441C16.6113 97.7266 19.8926 95.3682 23.9941 95.334C25.0537 95.3682 26.3184 95.5391 27.2754 95.7441V105.793C26.1816 105.451 24.0967 105.212 22.6953 105.246C18.3887 105.212 15.21 108.22 15.2441 112.697V133H3.69141ZM48.0566 133.684C36.4355 133.684 29.3262 126.438 29.3262 114.611C29.3262 103.093 36.5039 95.4023 47.6465 95.4023C58.0713 95.4023 65.5566 102.033 65.5566 114.338V117.277H40.6738V117.482C40.708 122.233 43.5791 125.344 48.2617 125.344C51.4062 125.344 53.7646 123.977 54.6875 121.789H65.4199C64.0186 129.035 57.6611 133.684 48.0566 133.684ZM40.6738 110.51H54.8242C54.7559 106.545 51.8848 103.742 47.9199 103.742C43.8525 103.742 40.8447 106.682 40.6738 110.51ZM69.7949 122.678C69.7607 114.44 76.1523 111.501 83.5352 111.057C86.2354 110.886 90.8496 110.715 92.4219 110.646V107.639C92.4219 105.041 90.5078 103.571 87.3633 103.605C84.3213 103.571 82.3389 104.938 81.8945 107.365H71.1621C71.6748 100.803 77.2119 95.4023 87.6367 95.4023C96.7969 95.4023 103.94 99.7432 103.975 107.775V133H93.1055V127.805H92.832C90.8154 131.564 87.2266 133.649 82.0312 133.684C74.9219 133.649 69.7607 130.026 69.7949 122.678ZM80.7324 122.199C80.6982 124.694 82.7148 126.027 85.5176 126.027C89.4482 126.027 92.5244 123.464 92.4902 119.807V117.414C91.0889 117.448 87.1924 117.653 85.4492 117.824C82.5439 118.132 80.6982 119.738 80.7324 122.199ZM128.242 133.684C116.553 133.684 109.58 125.891 109.58 114.543C109.58 103.161 116.621 95.4023 128.242 95.4023C138.394 95.4023 145.059 101.281 145.332 110.305H134.6C134.087 106.545 131.831 104.187 128.379 104.152C124.141 104.187 121.304 107.775 121.338 114.406C121.304 121.14 124.106 124.763 128.379 124.729C131.694 124.763 134.087 122.575 134.6 118.645H145.332C145.024 127.702 138.564 133.684 128.242 133.684ZM171.992 95.8809V104.357H165.225V121.379C165.259 123.703 166.421 124.421 168.369 124.455C169.326 124.523 171.172 124.421 172.471 124.318V133.137C171.343 133.308 169.429 133.513 166.729 133.547C158.56 133.513 153.672 130.163 153.74 122.678V104.357H148.75V95.8809H153.74V86.9941H165.225V95.8809H171.992ZM205.146 111.74V133H193.594V95.8809H204.531V102.648H204.941C206.616 98.1709 210.752 95.4023 216.221 95.4023C224.048 95.4023 229.106 100.939 229.072 109.348V133H217.588V111.535C217.588 107.365 215.332 104.87 211.504 104.836C207.676 104.87 205.146 107.434 205.146 111.74ZM253.613 133.684C241.992 133.684 234.883 126.438 234.883 114.611C234.883 103.093 242.061 95.4023 253.203 95.4023C263.628 95.4023 271.113 102.033 271.113 114.338V117.277H246.23V117.482C246.265 122.233 249.136 125.344 253.818 125.344C256.963 125.344 259.321 123.977 260.244 121.789H270.977C269.575 129.035 263.218 133.684 253.613 133.684ZM246.23 110.51H260.381C260.312 106.545 257.441 103.742 253.477 103.742C249.409 103.742 246.401 106.682 246.23 110.51ZM286.289 95.8809L292.578 108.254L299.004 95.8809H310.693L300.234 114.406L311.035 133H299.482L292.578 120.559L285.811 133H274.053L284.922 114.406L274.6 95.8809H286.289ZM336.67 95.8809V104.357H329.902V121.379C329.937 123.703 331.099 124.421 333.047 124.455C334.004 124.523 335.85 124.421 337.148 124.318V133.137C336.021 133.308 334.106 133.513 331.406 133.547C323.237 133.513 318.35 130.163 318.418 122.678V104.357H313.428V95.8809H318.418V86.9941H329.902V95.8809H336.67ZM349.111 133.684C345.728 133.684 342.891 130.915 342.959 127.463C342.891 124.113 345.728 121.379 349.111 121.379C352.393 121.379 355.298 124.113 355.332 127.463C355.298 130.915 352.393 133.684 349.111 133.684ZM363.057 95.8809H374.609V134.572C374.575 143.664 368.765 146.911 359.639 146.945L357.246 146.877V138.059C357.827 138.127 358.237 138.161 358.682 138.127C361.963 138.161 363.057 136.931 363.057 134.367V95.8809ZM362.852 85.9004C362.852 82.8242 365.518 80.3291 368.799 80.3633C372.114 80.3291 374.78 82.8242 374.814 85.9004C374.78 88.9766 372.114 91.4375 368.799 91.4375C365.518 91.4375 362.852 88.9766 362.852 85.9004ZM403.389 107.365C403.081 104.904 400.825 103.332 397.783 103.332C394.912 103.332 392.69 104.597 392.725 106.545C392.69 107.946 393.784 109.143 396.963 109.758L404.004 111.125C411.387 112.561 414.941 115.773 415.01 121.174C414.941 128.762 407.969 133.684 397.92 133.684C387.29 133.684 381.138 128.967 380.352 121.584H391.836C392.28 124.25 394.536 125.651 397.988 125.686C401.099 125.651 403.252 124.455 403.32 122.404C403.252 120.729 401.816 119.738 398.604 119.055L392.246 117.893C384.932 116.525 381.24 112.834 381.309 107.16C381.24 99.8115 387.563 95.4023 397.578 95.4023C407.559 95.4023 413.643 99.9482 414.121 107.365H403.389ZM457.051 95.8809V104.357H450.283V121.379C450.317 123.703 451.479 124.421 453.428 124.455C454.385 124.523 456.23 124.421 457.529 124.318V133.137C456.401 133.308 454.487 133.513 451.787 133.547C443.618 133.513 438.73 130.163 438.799 122.678V104.357H433.809V95.8809H438.799V86.9941H450.283V95.8809H457.051ZM461.289 122.678C461.255 114.44 467.646 111.501 475.029 111.057C477.729 110.886 482.344 110.715 483.916 110.646V107.639C483.916 105.041 482.002 103.571 478.857 103.605C475.815 103.571 473.833 104.938 473.389 107.365H462.656C463.169 100.803 468.706 95.4023 479.131 95.4023C488.291 95.4023 495.435 99.7432 495.469 107.775V133H484.6V127.805H484.326C482.31 131.564 478.721 133.649 473.525 133.684C466.416 133.649 461.255 130.026 461.289 122.678ZM472.227 122.199C472.192 124.694 474.209 126.027 477.012 126.027C480.942 126.027 484.019 123.464 483.984 119.807V117.414C482.583 117.448 478.687 117.653 476.943 117.824C474.038 118.132 472.192 119.738 472.227 122.199ZM502.51 133V95.8809H514.062V133H502.51ZM502.373 85.9004C502.373 82.8242 505.039 80.3291 508.32 80.3633C511.636 80.3291 514.302 82.8242 514.336 85.9004C514.302 88.9766 511.636 91.4375 508.32 91.4375C505.039 91.4375 502.373 88.9766 502.373 85.9004ZM532.998 83.5078V133H521.445V83.5078H532.998ZM547.422 133L537.646 95.8809H549.199L554.395 119.875H554.668L560.205 95.8809H571.484L577.158 119.738H577.432L582.422 95.8809H594.043L584.268 133H571.963L566.084 110.988H565.605L559.727 133H547.422ZM598.691 133V95.8809H610.244V133H598.691ZM598.555 85.9004C598.555 82.8242 601.221 80.3291 604.502 80.3633C607.817 80.3291 610.483 82.8242 610.518 85.9004C610.483 88.9766 607.817 91.4375 604.502 91.4375C601.221 91.4375 598.555 88.9766 598.555 85.9004ZM629.18 111.74V133H617.627V95.8809H628.564V102.648H628.975C630.649 98.1709 634.785 95.4023 640.254 95.4023C648.081 95.4023 653.14 100.939 653.105 109.348V133H641.621V111.535C641.621 107.365 639.365 104.87 635.537 104.836C631.709 104.87 629.18 107.434 629.18 111.74ZM673.955 133.547C665.684 133.547 659.053 127.053 659.053 114.475C659.053 101.452 666.06 95.4023 673.887 95.4023C679.834 95.4023 683.013 98.8887 684.414 102.238H684.688V83.5078H696.172V133H684.756V126.984H684.414C682.91 130.368 679.629 133.547 673.955 133.547ZM670.879 114.406C670.879 120.524 673.374 124.523 677.852 124.523C682.329 124.523 684.927 120.559 684.893 114.406C684.927 108.254 682.329 104.426 677.852 104.426C673.34 104.426 670.879 108.356 670.879 114.406ZM720.85 133.684C709.16 133.684 702.188 125.891 702.188 114.543C702.188 103.161 709.229 95.4023 720.85 95.4023C731.001 95.4023 737.666 101.281 737.939 110.305H727.207C726.694 106.545 724.438 104.187 720.986 104.152C716.748 104.187 713.911 107.775 713.945 114.406C713.911 121.14 716.714 124.763 720.986 124.729C724.302 124.763 726.694 122.575 727.207 118.645H737.939C737.632 127.702 731.172 133.684 720.85 133.684ZM765.283 107.365C764.976 104.904 762.72 103.332 759.678 103.332C756.807 103.332 754.585 104.597 754.619 106.545C754.585 107.946 755.679 109.143 758.857 109.758L765.898 111.125C773.281 112.561 776.836 115.773 776.904 121.174C776.836 128.762 769.863 133.684 759.814 133.684C749.185 133.684 743.032 128.967 742.246 121.584H753.73C754.175 124.25 756.431 125.651 759.883 125.686C762.993 125.651 765.146 124.455 765.215 122.404C765.146 120.729 763.711 119.738 760.498 119.055L754.141 117.893C746.826 116.525 743.135 112.834 743.203 107.16C743.135 99.8115 749.458 95.4023 759.473 95.4023C769.453 95.4023 775.537 99.9482 776.016 107.365H765.283ZM803.975 107.365C803.667 104.904 801.411 103.332 798.369 103.332C795.498 103.332 793.276 104.597 793.311 106.545C793.276 107.946 794.37 109.143 797.549 109.758L804.59 111.125C811.973 112.561 815.527 115.773 815.596 121.174C815.527 128.762 808.555 133.684 798.506 133.684C787.876 133.684 781.724 128.967 780.938 121.584H792.422C792.866 124.25 795.122 125.651 798.574 125.686C801.685 125.651 803.838 124.455 803.906 122.404C803.838 120.729 802.402 119.738 799.189 119.055L792.832 117.893C785.518 116.525 781.826 112.834 781.895 107.16C781.826 99.8115 788.149 95.4023 798.164 95.4023C808.145 95.4023 814.229 99.9482 814.707 107.365H803.975ZM836.924 146.945V95.8809H848.34V102.238H848.75C850.117 98.8887 853.296 95.4023 859.209 95.4023C867.07 95.4023 874.043 101.452 874.043 114.475C874.043 127.053 867.446 133.547 859.209 133.547C853.501 133.547 850.186 130.368 848.75 126.984H848.477V146.945H836.924ZM848.203 114.406C848.203 120.559 850.801 124.523 855.244 124.523C859.756 124.523 862.251 120.524 862.217 114.406C862.251 108.356 859.79 104.426 855.244 104.426C850.767 104.426 848.203 108.254 848.203 114.406ZM880.127 133V95.8809H891.338V102.58H891.68C893.047 97.7266 896.328 95.3682 900.43 95.334C901.489 95.3682 902.754 95.5391 903.711 95.7441V105.793C902.617 105.451 900.532 105.212 899.131 105.246C894.824 105.212 891.646 108.22 891.68 112.697V133H880.127ZM908.359 133V95.8809H919.912V133H908.359ZM908.223 85.9004C908.223 82.8242 910.889 80.3291 914.17 80.3633C917.485 80.3291 920.151 82.8242 920.186 85.9004C920.151 88.9766 917.485 91.4375 914.17 91.4375C910.889 91.4375 908.223 88.9766 908.223 85.9004ZM948.691 107.365C948.384 104.904 946.128 103.332 943.086 103.332C940.215 103.332 937.993 104.597 938.027 106.545C937.993 107.946 939.087 109.143 942.266 109.758L949.307 111.125C956.689 112.561 960.244 115.773 960.312 121.174C960.244 128.762 953.271 133.684 943.223 133.684C932.593 133.684 926.44 128.967 925.654 121.584H937.139C937.583 124.25 939.839 125.651 943.291 125.686C946.401 125.651 948.555 124.455 948.623 122.404C948.555 120.729 947.119 119.738 943.906 119.055L937.549 117.893C930.234 116.525 926.543 112.834 926.611 107.16C926.543 99.8115 932.866 95.4023 942.881 95.4023C952.861 95.4023 958.945 99.9482 959.424 107.365H948.691ZM965.986 133V95.8809H976.924V102.648H977.334C978.906 98.1367 982.769 95.4023 987.861 95.4023C992.988 95.4023 996.919 98.2051 997.91 102.648H998.32C999.756 98.2393 1004.06 95.4023 1009.53 95.4023C1016.5 95.4023 1021.36 100.119 1021.36 107.98V133H1009.8V110.578C1009.84 106.784 1007.65 104.768 1004.54 104.768C1001.23 104.768 999.209 107.126 999.209 110.715V133H988.135V110.441C988.135 106.955 986.05 104.768 982.939 104.768C979.761 104.768 977.505 107.194 977.539 110.988V133H965.986ZM1026.89 122.678C1026.86 114.44 1033.25 111.501 1040.63 111.057C1043.33 110.886 1047.95 110.715 1049.52 110.646V107.639C1049.52 105.041 1047.61 103.571 1044.46 103.605C1041.42 103.571 1039.44 104.938 1038.99 107.365H1028.26C1028.77 100.803 1034.31 95.4023 1044.74 95.4023C1053.9 95.4023 1061.04 99.7432 1061.07 107.775V133H1050.21V127.805H1049.93C1047.92 131.564 1044.33 133.649 1039.13 133.684C1032.02 133.649 1026.86 130.026 1026.89 122.678ZM1037.83 122.199C1037.8 124.694 1039.81 126.027 1042.62 126.027C1046.55 126.027 1049.62 123.464 1049.59 119.807V117.414C1048.19 117.448 1044.29 117.653 1042.55 117.824C1039.64 118.132 1037.8 119.738 1037.83 122.199ZM17.2949 217.547C9.02344 217.547 2.39258 211.053 2.39258 198.475C2.39258 185.452 9.39941 179.402 17.2266 179.402C23.1738 179.402 26.3525 182.889 27.7539 186.238H28.0273V167.508H39.5117V217H28.0957V210.984H27.7539C26.25 214.368 22.9688 217.547 17.2949 217.547ZM14.2188 198.406C14.2188 204.524 16.7139 208.523 21.1914 208.523C25.6689 208.523 28.2666 204.559 28.2324 198.406C28.2666 192.254 25.6689 188.426 21.1914 188.426C16.6797 188.426 14.2188 192.356 14.2188 198.406ZM45.2539 206.678C45.2197 198.44 51.6113 195.501 58.9941 195.057C61.6943 194.886 66.3086 194.715 67.8809 194.646V191.639C67.8809 189.041 65.9668 187.571 62.8223 187.605C59.7803 187.571 57.7979 188.938 57.3535 191.365H46.6211C47.1338 184.803 52.6709 179.402 63.0957 179.402C72.2559 179.402 79.3994 183.743 79.4336 191.775V217H68.5645V211.805H68.291C66.2744 215.564 62.6855 217.649 57.4902 217.684C50.3809 217.649 45.2197 214.026 45.2539 206.678ZM56.1914 206.199C56.1572 208.694 58.1738 210.027 60.9766 210.027C64.9072 210.027 67.9834 207.464 67.9492 203.807V201.414C66.5479 201.448 62.6514 201.653 60.9082 201.824C58.0029 202.132 56.1572 203.738 56.1914 206.199ZM86.4746 217V179.881H97.6855V186.58H98.0273C99.3945 181.727 102.676 179.368 106.777 179.334C107.837 179.368 109.102 179.539 110.059 179.744V189.793C108.965 189.451 106.88 189.212 105.479 189.246C101.172 189.212 97.9932 192.22 98.0273 196.697V217H86.4746ZM137.197 179.881V188.357H130.43V205.379C130.464 207.703 131.626 208.421 133.574 208.455C134.531 208.523 136.377 208.421 137.676 208.318V217.137C136.548 217.308 134.634 217.513 131.934 217.547C123.765 217.513 118.877 214.163 118.945 206.678V188.357H113.955V179.881H118.945V170.994H130.43V179.881H137.197ZM179.648 179.881V188.357H172.607V217H161.055V188.357H155.996V179.881H161.055V177.83C161.055 169.422 165.977 165.184 173.701 165.184C176.333 165.184 178.35 165.423 180.332 165.799V174.344C178.76 174.207 177.7 174.173 177.188 174.139C174.282 174.173 172.573 175.267 172.607 178.104V179.881H179.648ZM196.807 167.508V217H185.254V167.508H196.807ZM228.115 201.004V179.881H239.6V217H228.662V210.164H228.252C226.611 214.642 222.476 217.479 216.904 217.479C209.316 217.479 204.224 211.976 204.189 203.533V179.881H215.742V201.346C215.742 205.413 217.998 207.908 221.689 207.908C225.244 207.908 228.149 205.481 228.115 201.004ZM267.764 179.881V188.357H260.996V205.379C261.03 207.703 262.192 208.421 264.141 208.455C265.098 208.523 266.943 208.421 268.242 208.318V217.137C267.114 217.308 265.2 217.513 262.5 217.547C254.331 217.513 249.443 214.163 249.512 206.678V188.357H244.521V179.881H249.512V170.994H260.996V179.881H267.764ZM294.424 179.881V188.357H287.656V205.379C287.69 207.703 288.853 208.421 290.801 208.455C291.758 208.523 293.604 208.421 294.902 208.318V217.137C293.774 217.308 291.86 217.513 289.16 217.547C280.991 217.513 276.104 214.163 276.172 206.678V188.357H271.182V179.881H276.172V170.994H287.656V179.881H294.424ZM317.256 217.684C305.635 217.684 298.525 210.438 298.525 198.611C298.525 187.093 305.703 179.402 316.846 179.402C327.271 179.402 334.756 186.033 334.756 198.338V201.277H309.873V201.482C309.907 206.233 312.778 209.344 317.461 209.344C320.605 209.344 322.964 207.977 323.887 205.789H334.619C333.218 213.035 326.86 217.684 317.256 217.684ZM309.873 194.51H324.023C323.955 190.545 321.084 187.742 317.119 187.742C313.052 187.742 310.044 190.682 309.873 194.51ZM340.703 217V179.881H351.914V186.58H352.256C353.623 181.727 356.904 179.368 361.006 179.334C362.065 179.368 363.33 179.539 364.287 179.744V189.793C363.193 189.451 361.108 189.212 359.707 189.246C355.4 189.212 352.222 192.22 352.256 196.697V217H340.703ZM420.342 179.881L407.559 217H394.365L381.65 179.881H393.75L400.791 205.652H401.201L408.174 179.881H420.342ZM440.85 217.684C429.229 217.684 422.119 210.438 422.119 198.611C422.119 187.093 429.297 179.402 440.439 179.402C450.864 179.402 458.35 186.033 458.35 198.338V201.277H433.467V201.482C433.501 206.233 436.372 209.344 441.055 209.344C444.199 209.344 446.558 207.977 447.48 205.789H458.213C456.812 213.035 450.454 217.684 440.85 217.684ZM433.467 194.51H447.617C447.549 190.545 444.678 187.742 440.713 187.742C436.646 187.742 433.638 190.682 433.467 194.51ZM464.297 217V179.881H475.508V186.58H475.85C477.217 181.727 480.498 179.368 484.6 179.334C485.659 179.368 486.924 179.539 487.881 179.744V189.793C486.787 189.451 484.702 189.212 483.301 189.246C478.994 189.212 475.815 192.22 475.85 196.697V217H464.297ZM508.594 217.684C496.904 217.684 489.932 209.891 489.932 198.543C489.932 187.161 496.973 179.402 508.594 179.402C518.745 179.402 525.41 185.281 525.684 194.305H514.951C514.438 190.545 512.183 188.187 508.73 188.152C504.492 188.187 501.655 191.775 501.689 198.406C501.655 205.14 504.458 208.763 508.73 208.729C512.046 208.763 514.438 206.575 514.951 202.645H525.684C525.376 211.702 518.916 217.684 508.594 217.684ZM548.926 217.684C537.305 217.684 530.195 210.438 530.195 198.611C530.195 187.093 537.373 179.402 548.516 179.402C558.94 179.402 566.426 186.033 566.426 198.338V201.277H541.543V201.482C541.577 206.233 544.448 209.344 549.131 209.344C552.275 209.344 554.634 207.977 555.557 205.789H566.289C564.888 213.035 558.53 217.684 548.926 217.684ZM541.543 194.51H555.693C555.625 190.545 552.754 187.742 548.789 187.742C544.722 187.742 541.714 190.682 541.543 194.51ZM583.926 167.508V217H572.373V167.508H583.926ZM606.963 217V179.881H618.174V186.58H618.516C619.883 181.727 623.164 179.368 627.266 179.334C628.325 179.368 629.59 179.539 630.547 179.744V189.793C629.453 189.451 627.368 189.212 625.967 189.246C621.66 189.212 618.481 192.22 618.516 196.697V217H606.963ZM651.328 217.684C639.707 217.684 632.598 210.438 632.598 198.611C632.598 187.093 639.775 179.402 650.918 179.402C661.343 179.402 668.828 186.033 668.828 198.338V201.277H643.945V201.482C643.979 206.233 646.851 209.344 651.533 209.344C654.678 209.344 657.036 207.977 657.959 205.789H668.691C667.29 213.035 660.933 217.684 651.328 217.684ZM643.945 194.51H658.096C658.027 190.545 655.156 187.742 651.191 187.742C647.124 187.742 644.116 190.682 643.945 194.51ZM673.066 206.678C673.032 198.44 679.424 195.501 686.807 195.057C689.507 194.886 694.121 194.715 695.693 194.646V191.639C695.693 189.041 693.779 187.571 690.635 187.605C687.593 187.571 685.61 188.938 685.166 191.365H674.434C674.946 184.803 680.483 179.402 690.908 179.402C700.068 179.402 707.212 183.743 707.246 191.775V217H696.377V211.805H696.104C694.087 215.564 690.498 217.649 685.303 217.684C678.193 217.649 673.032 214.026 673.066 206.678ZM684.004 206.199C683.97 208.694 685.986 210.027 688.789 210.027C692.72 210.027 695.796 207.464 695.762 203.807V201.414C694.36 201.448 690.464 201.653 688.721 201.824C685.815 202.132 683.97 203.738 684.004 206.199ZM731.514 217.684C719.824 217.684 712.852 209.891 712.852 198.543C712.852 187.161 719.893 179.402 731.514 179.402C741.665 179.402 748.33 185.281 748.604 194.305H737.871C737.358 190.545 735.103 188.187 731.65 188.152C727.412 188.187 724.575 191.775 724.609 198.406C724.575 205.14 727.378 208.763 731.65 208.729C734.966 208.763 737.358 206.575 737.871 202.645H748.604C748.296 211.702 741.836 217.684 731.514 217.684ZM775.264 179.881V188.357H768.496V205.379C768.53 207.703 769.692 208.421 771.641 208.455C772.598 208.523 774.443 208.421 775.742 208.318V217.137C774.614 217.308 772.7 217.513 770 217.547C761.831 217.513 756.943 214.163 757.012 206.678V188.357H752.021V179.881H757.012V170.994H768.496V179.881H775.264ZM803.77 192.459V201.346H780.938V192.459H803.77ZM823.457 195.74V217H811.904V167.508H823.047V186.648H823.457C825.166 182.103 829.062 179.402 834.6 179.402C842.427 179.402 847.52 184.871 847.52 193.348V217H835.967V195.535C836.001 191.365 833.779 188.87 829.883 188.836C826.055 188.87 823.457 191.434 823.457 195.74ZM871.992 217.684C860.405 217.684 853.33 209.993 853.33 198.543C853.33 187.093 860.405 179.402 871.992 179.402C883.613 179.402 890.654 187.093 890.654 198.543C890.654 209.993 883.613 217.684 871.992 217.684ZM865.088 198.475C865.054 204.695 867.515 208.968 872.061 209.002C876.47 208.968 878.931 204.695 878.896 198.475C878.931 192.288 876.47 187.981 872.061 187.947C867.515 187.981 865.054 192.288 865.088 198.475ZM913.828 217.684C902.241 217.684 895.166 209.993 895.166 198.543C895.166 187.093 902.241 179.402 913.828 179.402C925.449 179.402 932.49 187.093 932.49 198.543C932.49 209.993 925.449 217.684 913.828 217.684ZM906.924 198.475C906.89 204.695 909.351 208.968 913.896 209.002C918.306 208.968 920.767 204.695 920.732 198.475C920.767 192.288 918.306 187.981 913.896 187.947C909.351 187.981 906.89 192.288 906.924 198.475ZM938.438 217V167.508H949.99V193.348H950.469L961.201 179.881H974.326L960.962 196.048L974.873 217H961.543L952.417 202.781L949.99 205.687V217H938.438ZM1001.4 192.459V201.346H978.564V192.459H1001.4ZM1030.38 179.881V188.357H1023.34V217H1011.79V188.357H1006.73V179.881H1011.79V177.83C1011.79 169.422 1016.71 165.184 1024.43 165.184C1027.07 165.184 1029.08 165.423 1031.06 165.799V174.344C1029.49 174.207 1028.43 174.173 1027.92 174.139C1025.01 174.173 1023.31 175.267 1023.34 178.104V179.881H1030.38ZM1051.91 217.684C1040.33 217.684 1033.25 209.993 1033.25 198.543C1033.25 187.093 1040.33 179.402 1051.91 179.402C1063.54 179.402 1070.58 187.093 1070.58 198.543C1070.58 209.993 1063.54 217.684 1051.91 217.684ZM1045.01 198.475C1044.98 204.695 1047.44 208.968 1051.98 209.002C1056.39 208.968 1058.85 204.695 1058.82 198.475C1058.85 192.288 1056.39 187.981 1051.98 187.947C1047.44 187.981 1044.98 192.288 1045.01 198.475ZM1076.52 217V179.881H1087.73V186.58H1088.08C1089.44 181.727 1092.72 179.368 1096.83 179.334C1097.89 179.368 1099.15 179.539 1100.11 179.744V189.793C1099.01 189.451 1096.93 189.212 1095.53 189.246C1091.22 189.212 1088.04 192.22 1088.08 196.697V217H1076.52ZM1104.76 217V179.881H1115.69V186.648H1116.1C1117.68 182.137 1121.54 179.402 1126.63 179.402C1131.76 179.402 1135.69 182.205 1136.68 186.648H1137.09C1138.53 182.239 1142.83 179.402 1148.3 179.402C1155.27 179.402 1160.13 184.119 1160.13 191.98V217H1148.57V194.578C1148.61 190.784 1146.42 188.768 1143.31 188.768C1140 188.768 1137.98 191.126 1137.98 194.715V217H1126.9V194.441C1126.9 190.955 1124.82 188.768 1121.71 188.768C1118.53 188.768 1116.27 191.194 1116.31 194.988V217H1104.76ZM24.541 263.881V272.357H17.5V301H5.94727V272.357H0.888672V263.881H5.94727V261.83C5.94727 253.422 10.8691 249.184 18.5938 249.184C21.2256 249.184 23.2422 249.423 25.2246 249.799V258.344C23.6523 258.207 22.5928 258.173 22.0801 258.139C19.1748 258.173 17.4658 259.267 17.5 262.104V263.881H24.541ZM30.1465 301V263.881H41.3574V270.58H41.6992C43.0664 265.727 46.3477 263.368 50.4492 263.334C51.5088 263.368 52.7734 263.539 53.7305 263.744V273.793C52.6367 273.451 50.5518 273.212 49.1504 273.246C44.8438 273.212 41.665 276.22 41.6992 280.697V301H30.1465ZM74.4434 301.684C62.8564 301.684 55.7812 293.993 55.7812 282.543C55.7812 271.093 62.8564 263.402 74.4434 263.402C86.0645 263.402 93.1055 271.093 93.1055 282.543C93.1055 293.993 86.0645 301.684 74.4434 301.684ZM67.5391 282.475C67.5049 288.695 69.9658 292.968 74.5117 293.002C78.9209 292.968 81.3818 288.695 81.3477 282.475C81.3818 276.288 78.9209 271.981 74.5117 271.947C69.9658 271.981 67.5049 276.288 67.5391 282.475ZM110.605 279.74V301H99.0527V263.881H109.99V270.648H110.4C112.075 266.171 116.211 263.402 121.68 263.402C129.507 263.402 134.565 268.939 134.531 277.348V301H123.047V279.535C123.047 275.365 120.791 272.87 116.963 272.836C113.135 272.87 110.605 275.434 110.605 279.74ZM162.49 263.881V272.357H155.723V289.379C155.757 291.703 156.919 292.421 158.867 292.455C159.824 292.523 161.67 292.421 162.969 292.318V301.137C161.841 301.308 159.927 301.513 157.227 301.547C149.058 301.513 144.17 298.163 144.238 290.678V272.357H139.248V263.881H144.238V254.994H155.723V263.881H162.49ZM190.996 276.459V285.346H168.164V276.459H190.996ZM216.426 301.684C204.805 301.684 197.695 294.438 197.695 282.611C197.695 271.093 204.873 263.402 216.016 263.402C226.44 263.402 233.926 270.033 233.926 282.338V285.277H209.043V285.482C209.077 290.233 211.948 293.344 216.631 293.344C219.775 293.344 222.134 291.977 223.057 289.789H233.789C232.388 297.035 226.03 301.684 216.426 301.684ZM209.043 278.51H223.193C223.125 274.545 220.254 271.742 216.289 271.742C212.222 271.742 209.214 274.682 209.043 278.51ZM251.426 279.74V301H239.873V263.881H250.811V270.648H251.221C252.896 266.171 257.031 263.402 262.5 263.402C270.327 263.402 275.386 268.939 275.352 277.348V301H263.867V279.535C263.867 275.365 261.611 272.87 257.783 272.836C253.955 272.87 251.426 275.434 251.426 279.74ZM296.201 301.547C287.93 301.547 281.299 295.053 281.299 282.475C281.299 269.452 288.306 263.402 296.133 263.402C302.08 263.402 305.259 266.889 306.66 270.238H306.934V251.508H318.418V301H307.002V294.984H306.66C305.156 298.368 301.875 301.547 296.201 301.547ZM293.125 282.406C293.125 288.524 295.62 292.523 300.098 292.523C304.575 292.523 307.173 288.559 307.139 282.406C307.173 276.254 304.575 272.426 300.098 272.426C295.586 272.426 293.125 276.356 293.125 282.406ZM341.592 301V251.508H353.076V270.238H353.35C354.751 266.889 357.93 263.402 363.877 263.402C371.704 263.402 378.711 269.452 378.711 282.475C378.711 295.053 372.046 301.547 363.809 301.547C358.135 301.547 354.854 298.368 353.35 294.984H353.008V301H341.592ZM352.871 282.406C352.837 288.559 355.435 292.523 359.912 292.523C364.39 292.523 366.885 288.524 366.885 282.406C366.885 276.356 364.39 272.426 359.912 272.426C355.435 272.426 352.837 276.254 352.871 282.406ZM383.086 290.678C383.052 282.44 389.443 279.501 396.826 279.057C399.526 278.886 404.141 278.715 405.713 278.646V275.639C405.713 273.041 403.799 271.571 400.654 271.605C397.612 271.571 395.63 272.938 395.186 275.365H384.453C384.966 268.803 390.503 263.402 400.928 263.402C410.088 263.402 417.231 267.743 417.266 275.775V301H406.396V295.805H406.123C404.106 299.564 400.518 301.649 395.322 301.684C388.213 301.649 383.052 298.026 383.086 290.678ZM394.023 290.199C393.989 292.694 396.006 294.027 398.809 294.027C402.739 294.027 405.815 291.464 405.781 287.807V285.414C404.38 285.448 400.483 285.653 398.74 285.824C395.835 286.132 393.989 287.738 394.023 290.199ZM441.533 301.684C429.844 301.684 422.871 293.891 422.871 282.543C422.871 271.161 429.912 263.402 441.533 263.402C451.685 263.402 458.35 269.281 458.623 278.305H447.891C447.378 274.545 445.122 272.187 441.67 272.152C437.432 272.187 434.595 275.775 434.629 282.406C434.595 289.14 437.397 292.763 441.67 292.729C444.985 292.763 447.378 290.575 447.891 286.645H458.623C458.315 295.702 451.855 301.684 441.533 301.684ZM464.57 301V251.508H476.123V277.348H476.602L487.334 263.881H500.459L487.095 280.048L501.006 301H487.676L478.55 286.781L476.123 289.687V301H464.57ZM527.529 276.459V285.346H504.697V276.459H527.529ZM552.959 301.684C541.338 301.684 534.229 294.438 534.229 282.611C534.229 271.093 541.406 263.402 552.549 263.402C562.974 263.402 570.459 270.033 570.459 282.338V285.277H545.576V285.482C545.61 290.233 548.481 293.344 553.164 293.344C556.309 293.344 558.667 291.977 559.59 289.789H570.322C568.921 297.035 562.563 301.684 552.959 301.684ZM545.576 278.51H559.727C559.658 274.545 556.787 271.742 552.822 271.742C548.755 271.742 545.747 274.682 545.576 278.51ZM587.959 279.74V301H576.406V263.881H587.344V270.648H587.754C589.429 266.171 593.564 263.402 599.033 263.402C606.86 263.402 611.919 268.939 611.885 277.348V301H600.4V279.535C600.4 275.365 598.145 272.87 594.316 272.836C590.488 272.87 587.959 275.434 587.959 279.74ZM632.734 301.547C624.463 301.547 617.832 295.053 617.832 282.475C617.832 269.452 624.839 263.402 632.666 263.402C638.613 263.402 641.792 266.889 643.193 270.238H643.467V251.508H654.951V301H643.535V294.984H643.193C641.689 298.368 638.408 301.547 632.734 301.547ZM629.658 282.406C629.658 288.524 632.153 292.523 636.631 292.523C641.108 292.523 643.706 288.559 643.672 282.406C643.706 276.254 641.108 272.426 636.631 272.426C632.119 272.426 629.658 276.356 629.658 282.406ZM698.906 263.881V272.357H691.865V301H680.312V272.357H675.254V263.881H680.312V261.83C680.312 253.422 685.234 249.184 692.959 249.184C695.591 249.184 697.607 249.423 699.59 249.799V258.344C698.018 258.207 696.958 258.173 696.445 258.139C693.54 258.173 691.831 259.267 691.865 262.104V263.881H698.906ZM728.438 285.004V263.881H739.922V301H728.984V294.164H728.574C726.934 298.642 722.798 301.479 717.227 301.479C709.639 301.479 704.546 295.976 704.512 287.533V263.881H716.064V285.346C716.064 289.413 718.32 291.908 722.012 291.908C725.566 291.908 728.472 289.481 728.438 285.004ZM758.926 251.508V301H747.373V251.508H758.926ZM777.861 251.508V301H766.309V251.508H777.861ZM808.896 276.459V285.346H786.064V276.459H808.896ZM838.428 275.365C838.12 272.904 835.864 271.332 832.822 271.332C829.951 271.332 827.729 272.597 827.764 274.545C827.729 275.946 828.823 277.143 832.002 277.758L839.043 279.125C846.426 280.561 849.98 283.773 850.049 289.174C849.98 296.762 843.008 301.684 832.959 301.684C822.329 301.684 816.177 296.967 815.391 289.584H826.875C827.319 292.25 829.575 293.651 833.027 293.686C836.138 293.651 838.291 292.455 838.359 290.404C838.291 288.729 836.855 287.738 833.643 287.055L827.285 285.893C819.971 284.525 816.279 280.834 816.348 275.16C816.279 267.812 822.603 263.402 832.617 263.402C842.598 263.402 848.682 267.948 849.16 275.365H838.428ZM876.436 263.881V272.357H869.668V289.379C869.702 291.703 870.864 292.421 872.812 292.455C873.77 292.523 875.615 292.421 876.914 292.318V301.137C875.786 301.308 873.872 301.513 871.172 301.547C863.003 301.513 858.115 298.163 858.184 290.678V272.357H853.193V263.881H858.184V254.994H869.668V263.881H876.436ZM880.674 290.678C880.64 282.44 887.031 279.501 894.414 279.057C897.114 278.886 901.729 278.715 903.301 278.646V275.639C903.301 273.041 901.387 271.571 898.242 271.605C895.2 271.571 893.218 272.938 892.773 275.365H882.041C882.554 268.803 888.091 263.402 898.516 263.402C907.676 263.402 914.819 267.743 914.854 275.775V301H903.984V295.805H903.711C901.694 299.564 898.105 301.649 892.91 301.684C885.801 301.649 880.64 298.026 880.674 290.678ZM891.611 290.199C891.577 292.694 893.594 294.027 896.396 294.027C900.327 294.027 903.403 291.464 903.369 287.807V285.414C901.968 285.448 898.071 285.653 896.328 285.824C893.423 286.132 891.577 287.738 891.611 290.199ZM939.121 301.684C927.432 301.684 920.459 293.891 920.459 282.543C920.459 271.161 927.5 263.402 939.121 263.402C949.272 263.402 955.938 269.281 956.211 278.305H945.479C944.966 274.545 942.71 272.187 939.258 272.152C935.02 272.187 932.183 275.775 932.217 282.406C932.183 289.14 934.985 292.763 939.258 292.729C942.573 292.763 944.966 290.575 945.479 286.645H956.211C955.903 295.702 949.443 301.684 939.121 301.684ZM962.158 301V251.508H973.711V277.348H974.189L984.922 263.881H998.047L984.683 280.048L998.594 301H985.264L976.138 286.781L973.711 289.687V301H962.158ZM1031.47 301.547C1023.2 301.547 1016.57 295.053 1016.57 282.475C1016.57 269.452 1023.58 263.402 1031.41 263.402C1037.35 263.402 1040.53 266.889 1041.93 270.238H1042.21V251.508H1053.69V301H1042.28V294.984H1041.93C1040.43 298.368 1037.15 301.547 1031.47 301.547ZM1028.4 282.406C1028.4 288.524 1030.89 292.523 1035.37 292.523C1039.85 292.523 1042.45 288.559 1042.41 282.406C1042.45 276.254 1039.85 272.426 1035.37 272.426C1030.86 272.426 1028.4 276.356 1028.4 282.406ZM1078.44 301.684C1066.82 301.684 1059.71 294.438 1059.71 282.611C1059.71 271.093 1066.88 263.402 1078.03 263.402C1088.45 263.402 1095.94 270.033 1095.94 282.338V285.277H1071.05V285.482C1071.09 290.233 1073.96 293.344 1078.64 293.344C1081.79 293.344 1084.15 291.977 1085.07 289.789H1095.8C1094.4 297.035 1088.04 301.684 1078.44 301.684ZM1071.05 278.51H1085.21C1085.14 274.545 1082.27 271.742 1078.3 271.742C1074.23 271.742 1071.23 274.682 1071.05 278.51Z" fill="#F1F1F1"/>
<path d="M197.021 76.6719V94.1035H204.883V103.059H197.021V122.268H186.016V76.6719H197.021ZM146.367 96.8379C146.333 87.2676 154.297 80.3975 164.141 80.4316C174.019 80.3975 181.846 87.2676 181.846 96.8379C181.846 106.135 174.019 113.176 164.141 113.176C154.297 113.176 146.333 106.135 146.367 96.8379ZM155.117 138.879V117.414H166.123V130.129H198.867V138.879H155.117ZM157.1 96.8379C157.1 101.247 160.312 103.64 164.141 103.605C168.105 103.64 171.147 101.247 171.182 96.8379C171.147 92.1895 168.105 89.8994 164.141 89.9336C160.312 89.8994 157.1 92.1895 157.1 96.8379ZM221.494 79.4746V103.503C229.561 103.4 235.884 102.922 242.822 101.691L243.916 110.441C235.337 112.014 227.236 112.424 215.889 112.424H210.488V79.4746H221.494ZM216.709 127.395C216.675 119.567 225.117 114.885 238.721 114.885C252.495 114.885 260.869 119.567 260.869 127.395C260.869 135.358 252.495 139.973 238.721 139.973C225.117 139.973 216.675 135.358 216.709 127.395ZM227.646 127.395C227.578 130.266 231.235 131.53 238.721 131.496C246.343 131.53 249.966 130.266 250 127.395C249.966 124.558 246.343 123.396 238.721 123.43C231.235 123.396 227.578 124.558 227.646 127.395ZM236.055 100.188V91.916H249.795V89.4551H236.055V81.1836H249.795V76.5352H260.732V114.064H249.795V100.188H236.055ZM317.881 76.5352V100.529H326.426V109.484H317.881V139.768H307.012V76.5352H317.881ZM267.09 94.2402V85.5586H280.146V77.6973H291.084V85.5586H303.936V94.2402H267.09ZM269.004 112.082C268.97 103.093 276.045 96.667 285.615 96.7012C294.946 96.667 302.124 103.093 302.158 112.082C302.124 121.105 294.946 127.497 285.615 127.531C276.045 127.497 268.97 121.105 269.004 112.082ZM279.531 112.082C279.497 116.491 282.061 118.645 285.615 118.645C289.102 118.645 291.631 116.491 291.631 112.082C291.631 107.844 289.102 105.554 285.615 105.52C282.061 105.554 279.497 107.844 279.531 112.082ZM349.121 91.1641C349.121 101.555 350.625 111.911 359.512 117.824L353.633 126.232C348.745 123.293 345.669 118.747 343.789 113.278C341.636 119.431 338.252 124.558 333.057 127.736L326.426 119.602C336.201 113.415 338.457 102.341 338.457 91.7109V81.6621H349.121V91.1641ZM353.018 105.861V97.043H359.58V77.2871H369.766V137.033H359.58V105.861H353.018ZM372.637 139.768V76.5352H383.096V139.768H372.637ZM446.191 123.977V132.863H388.428V123.977H400.391V109.416C395.845 106.408 393.11 101.965 393.145 96.4961C393.11 86.0371 403.364 79.0986 417.275 79.1328C431.05 79.0986 441.475 86.0371 441.475 96.4961C441.475 101.896 438.774 106.306 434.297 109.313V123.977H446.191ZM404.014 96.4961C403.979 102.204 409.038 105.417 417.275 105.451C425.342 105.417 430.537 102.204 430.605 96.4961C430.537 90.6514 425.342 87.6436 417.275 87.6777C409.038 87.6436 403.979 90.6514 404.014 96.4961ZM411.26 123.977H423.291V113.381C421.377 113.688 419.36 113.859 417.275 113.859C415.19 113.859 413.174 113.688 411.26 113.381V123.977ZM465.947 83.5078L464.785 117.619H454.053L452.822 83.5078H465.947ZM452.754 127.121C452.72 123.498 455.728 120.559 459.385 120.559C462.871 120.559 465.981 123.498 466.016 127.121C465.981 130.812 462.871 133.752 459.385 133.752C455.728 133.752 452.72 130.812 452.754 127.121ZM201.26 160.535V223.768H190.801V192.254H186.904V221.17H176.787V162.176H186.904V183.504H190.801V160.535H201.26ZM145.137 203.602C156.826 196.526 162.056 188.597 163.389 176.805H148.828V168.123H174.053C174.087 186.751 169.028 200.73 151.426 211.121L145.137 203.602ZM219.17 163.543V170.037H228.672V163.543H239.609V191.16H208.301V163.543H219.17ZM214.59 223.494V205.037H246.582V202.713H214.59V194.373H257.52V212.762H225.459V215.018H259.023V223.494H214.59ZM219.17 182.684H228.672V178.104H219.17V182.684ZM246.514 192.459V160.535H257.52V171.951H265.381V180.77H257.52V192.459H246.514ZM292.041 176.395C291.973 185.76 295.698 196.834 306.875 201.893L300.859 210.438C294.023 207.43 289.443 201.722 286.675 194.92C283.94 202.508 279.224 208.831 272.012 212.078L265.723 203.465C277.139 198.235 280.898 186.648 280.898 176.395V175.301H268.389V166.414H303.799V175.301H292.041V176.395ZM306.875 223.768V160.535H317.881V183.777H326.426V192.869H317.881V223.768H306.875ZM578.057 160.535V223.973H566.982V160.535H578.057ZM526.172 187.537C526.138 173.558 533.452 164.739 543.33 164.773C552.969 164.739 560.215 173.558 560.215 187.537C560.215 201.722 552.969 210.506 543.33 210.506C533.452 210.506 526.138 201.722 526.172 187.537ZM536.768 187.537C536.733 196.424 539.297 200.491 543.33 200.457C547.124 200.491 549.653 196.424 549.688 187.537C549.653 178.787 547.124 174.651 543.33 174.686C539.297 174.651 536.733 178.787 536.768 187.537ZM635.615 160.535V183.641H644.16V192.664H635.615V223.973H624.746V160.535H635.615ZM587.764 174.275V165.525H617.295V191.16H598.701V200.56C606.528 200.491 613.569 200.081 621.123 198.885L622.08 207.498C612.612 209.241 603.726 209.617 593.301 209.617H587.832V182.684H606.357V174.275H587.764ZM698.643 165.457V171.268C698.608 179.266 698.608 188.289 695.977 202.166L684.902 201.141C687.261 189.827 687.534 181.214 687.568 174.07H651.475V165.457H698.643ZM645.664 216.795V207.977H665.078V186.854H675.947V207.977H703.359V216.795H645.664ZM771.992 160.535V175.232H779.854V184.256H771.992V197.791H760.986V160.535H771.992ZM721.338 174.002V165.525H734.531V160.262H745.537V165.525H758.73V174.002H721.338ZM724.072 186.307C724.038 179.573 730.635 175.062 740 175.027C749.263 175.062 755.791 179.573 755.791 186.307C755.791 193.04 749.263 197.552 740 197.518C730.635 197.552 724.038 193.04 724.072 186.307ZM729.746 223.221V199.979H740.615V203.602H760.986V199.979H771.992V223.221H729.746ZM734.805 186.307C734.771 188.699 736.855 189.656 740 189.588C743.213 189.656 745.366 188.699 745.4 186.307C745.366 184.051 743.213 182.957 740 183.025C736.855 182.957 734.771 184.051 734.805 186.307ZM740.615 214.676H760.986V211.873H740.615V214.676ZM835.703 160.535V223.768H824.766V160.535H835.703ZM784.844 208.66V166.482H795.713V199.295C803.574 199.09 812.153 198.304 820.596 196.766L821.963 205.721C810.957 208.011 800.19 208.66 790.723 208.66H784.844ZM892.852 160.535V183.094H901.396V191.98H892.852V223.973H881.846V160.535H892.852ZM844.795 208.934V166.209H874.463V175.027H855.664V199.944C863.56 199.842 870.669 199.363 878.291 198.133L879.453 207.156C869.712 208.763 860.894 208.968 850.264 208.934H844.795ZM919.922 167.508L918.76 201.619H908.027L906.797 167.508H919.922ZM906.729 211.121C906.694 207.498 909.702 204.559 913.359 204.559C916.846 204.559 919.956 207.498 919.99 211.121C919.956 214.812 916.846 217.752 913.359 217.752C909.702 217.752 906.694 214.812 906.729 211.121Z" fill="black"/>
<path d="M396.494 160.672V196.082H385.488V160.672H396.494ZM343.857 178.719C343.789 169.661 351.514 163.27 361.562 163.27C371.543 163.27 379.302 169.661 379.268 178.719C379.302 187.503 371.543 194.1 361.562 194.168C351.514 194.1 343.789 187.503 343.857 178.719ZM353.359 223.221V198.611H396.494V223.221H353.359ZM354.521 178.719C354.487 182.752 357.427 184.905 361.562 184.871C365.527 184.905 368.398 182.752 368.398 178.719C368.398 174.446 365.527 172.396 361.562 172.43C357.427 172.396 354.487 174.446 354.521 178.719ZM364.16 214.471H385.762V207.225H364.16V214.471ZM456.104 162.996V171.541H440.552C441.919 175.369 446.875 179.573 459.316 180.838L455.352 189.451C442.808 188.255 435.596 183.572 432.349 177.591C429.136 183.538 422.026 188.255 409.551 189.451L405.654 180.838C418.062 179.607 422.915 175.335 424.316 171.541H408.936V162.996H456.104ZM403.672 200.047V191.365H461.367V200.047H438.877V209.617H428.008V200.047H403.672ZM409.961 222.879V204.422H420.898V214.129H455.078V222.879H409.961ZM489.189 170.311C489.155 177.625 492.231 184.974 502.725 188.152L497.051 196.834C490.488 194.715 486.147 190.716 483.584 185.623C480.781 191.092 476.167 195.433 469.297 197.723L463.35 188.973C474.663 185.657 478.013 177.454 478.047 169.559V163.885H489.189V170.311ZM474.014 209.412V200.799H517.969V223.768H507.031V209.412H474.014ZM496.641 180.291V171.404H507.031V160.535H517.969V198.406H507.031V180.291H496.641Z" fill="#767CFF"/>
</g>
<defs>
<clipPath id="clip0_15_34">
<rect width="1071" height="300" fill="white"/>
</clipPath>
</defs>
</svg>
